<svg id="Layer_1" xmlns="http://www.w3.org/2000/svg" width="250" height="198" viewBox="0 0 250 198"><style>.st0{fill:url(#SVGID_1_)}</style><linearGradient id="SVGID_1_" gradientUnits="userSpaceOnUse" x1="126.85" y1="226.439" x2="123.628" y2="-59.578"><stop offset="0" stop-color="#fff200"/><stop offset="1" stop-color="#f15a29"/></linearGradient><path class="st0" d="M245.5 50.5L204.7 5.7c-3.3-3.6-8-5.7-12.9-5.7H58.2c-4.9 0-9.6 2.1-12.9 5.7L4.5 50.5C1.6 53.7 0 57.9 0 62.3S1.6 70.8 4.6 74l107.6 117.6c3.3 3.6 8 5.7 12.9 5.7s9.6-2.1 12.9-5.7L245.4 74c2.9-3.2 4.6-7.4 4.6-11.7 0-4.4-1.6-8.6-4.5-11.8zm-10.8 5.4h-35.4l-17-19.3 17.2-19.5 35.2 38.8zm-82.2-44.3l22 25-17 19.3h-11.4l-17.3-19.6 21.8-24.7h1.9zm-51.8 55.9l18.6 108.6L58.8 67.5h41.9zm42.7 0L125 175.2 106.6 67.5h36.8zm-31.8-11.6L125 40.7l13.4 15.2h-26.8zm37.7 11.6h44.5l-63.2 109.4 18.7-109.4zm15.9-11.6L178.4 41l13.2 14.9h-26.4zM125 32l-17.9-20.4H143L125 32zM99.3 11.6l21.8 24.7-17.3 19.6H93L75.7 36.3l21.8-24.7h1.8zm-14 44.3H58.4l13.4-15.2 13.5 15.2zM52.2 67.5L111 173 14.4 67.5h37.8zm148.3 0h35.1l-95.3 104.2 60.2-104.2zm-5.1-54.6l-17 19.3-18.2-20.6h31.6c1.3 0 2.6.5 3.6 1.3zM89.8 11.6L71.8 32l-17-19.3c1-.7 2.1-1.1 3.4-1.1h31.6zm-39 5.3L68 36.3 50.7 55.9H15.3l35.5-39z"/></svg>
