<?xml version="1.0" encoding="utf-8"?>
<!-- Generator: Adobe Illustrator 22.1.0, SVG Export Plug-In . SVG Version: 6.00 Build 0)  -->
<svg version="1.1" id="Layer_1" xmlns="http://www.w3.org/2000/svg" xmlns:xlink="http://www.w3.org/1999/xlink" x="0px" y="0px"
	 width="200px" height="200px" viewBox="0 0 200 200" style="enable-background:new 0 0 200 200;" xml:space="preserve">
<style type="text/css">
	.st0{fill:#EB2027;}
</style>
<title>All Things Open 2018 Logo</title>
<path class="st0" d="M148.4,125l2.2-1.9v8.2l-3.3,0.6v3.4l10.4-1.8v-3.4l-3.3,0.6v-13l-2.8,0.5l-4.9,4.3L148.4,125L148.4,125z
	 M165.8,113c3.5-0.6,5.3-3,5.3-5.8v-7.1c0-2.8-1.8-4.6-5.3-4s-5.3,3-5.3,5.8v7.1C160.5,111.9,162.4,113.6,165.8,113z M164.3,101.2
	c0-0.9,0.5-1.6,1.5-1.8h0.1c1-0.2,1.5,0.4,1.5,1.3v7.1c0,0.9-0.5,1.6-1.5,1.8h-0.1c-1,0.2-1.5-0.4-1.5-1.3V101.2z M152.7,106
	l-5.9,7.8v2.5l10.6-1.9V111l-3.9,0.7l-1.4,0.3l3.5-4.6c1.1-1.5,1.8-2.6,1.8-4.5v-0.4c0-2-1.2-4.4-5.3-3.7c-3.6,0.6-5.3,2.7-5.3,6.3
	v0.4l3.8-0.7c0-1.8,0.6-2.5,1.4-2.6h0.2c0.8-0.1,1.4,0.3,1.4,1.7v0.2C153.6,104.7,153.3,105.2,152.7,106L152.7,106z M160.4,128v0.4
	c0,1.9,1.3,4.5,5.4,3.8c4-0.7,5.4-3.8,5.4-5.7v-0.4c0-1.7-0.8-2.7-1.8-3.2c1-0.8,1.7-2.1,1.7-3.8v-0.4c0-1.8-1.2-4.2-5.3-3.4
	c-4,0.7-5.3,3.5-5.3,5.3v0.4c0,1.7,0.8,2.7,1.7,3.2C161.2,125,160.4,126.3,160.4,128L160.4,128z M164.3,120.4c0-0.9,0.6-1.6,1.4-1.7
	h0.2c0.8-0.1,1.4,0.3,1.4,1.2v0.2c0,1-0.5,1.6-1.5,1.8h-0.1c-1,0.2-1.5-0.3-1.5-1.3v-0.2H164.3z M164.2,127.1c0-1,0.5-1.6,1.5-1.8
	h0.2c1-0.2,1.5,0.3,1.5,1.3v0.2c0,1.3-0.7,1.9-1.5,2h-0.2c-0.8,0.1-1.5-0.3-1.5-1.5V127.1z M78.1,155.3l-4.3,0.8v1.3l1.4-0.2v5.1
	l1.5-0.3v-5.1l1.4-0.2V155.3L78.1,155.3z M72.3,170.9l3.9-0.7v-1.3l-2.4,0.4v-1.2l2-0.4v-1.3l-2,0.4v-1.1l2.4-0.4V164l-3.9,0.7
	V170.9L72.3,170.9z M80.3,165.4v1.2l-1.7-3.2l-1.6,0.3v6.4l1.4-0.3v-3.5l1.7,3.2l1.6-0.3v-6.4l-1.4,0.3V165.4z M88.4,154.8v-1.3
	l-3.9,0.7v6.4l3.9-0.7v-1.3L86,159v-1.2l2-0.4V156l-2,0.4v-1.1L88.4,154.8L88.4,154.8z M83.5,154.3l-1.4,0.3v3.5l-1.7-3.2l-1.6,0.3
	v6.4l1.4-0.3v-3.5l1.7,3.2l1.6-0.3V154.3z M90.4,161.2c-1.7,0.3-2.4,1.4-2.4,3.6v0.3c0,2.2,0.8,3,2.4,2.7c1.7-0.3,2.4-1.4,2.4-3.6
	v-0.3C92.8,161.7,92,160.9,90.4,161.2z M91.3,164.5c0,1.1-0.2,1.8-0.9,2h-0.1c-0.7,0.1-0.9-0.5-0.9-1.7v-0.3c0-1.1,0.2-1.8,0.9-2
	h0.1c0.7-0.1,0.9,0.5,0.9,1.7V164.5z M13.5,86.1c0-0.2-0.1-0.4-0.2-0.6c-0.2-0.1-0.3-0.2-0.6-0.1l-6.4,1.1c-0.2,0-0.3,0-0.4-0.1v0.1
	l7.6,5.2V86.1z M54.4,161.8v1.2l-1.7-3.2l-1.6,0.3v6.4l1.4-0.3v-3.5l1.7,3.2l1.6-0.3v-6.4l-1.4,0.3V161.8z M48.6,166.9l1.5-0.3v-6.4
	l-1.5,0.3V166.9z M25.7,42.7l-10.6,1.9v8.2l10.6-1.9V42.7z M69.3,165l-2.1,0.4v6.4l1.5-0.3v-2.2l0.6-0.1c1-0.2,2.2-0.6,2.2-2.4v-0.2
	C71.5,164.9,70.3,164.9,69.3,165L69.3,165z M70,167c0,0.6-0.3,0.8-0.6,0.8l-0.7,0.1v-1.5l0.7-0.1C69.6,166.3,70,166.4,70,167z
	 M66.8,157.3l-2.1,0.4l-1.5,6.7l1.6-0.3l0.2-1.3l1.3-0.2l0.3,1.3l1.6-0.3L66.8,157.3L66.8,157.3z M65.4,161.3l0.4-2l0.4,1.9
	C66.2,161.2,65.4,161.3,65.4,161.3z M63,160.1V160c0-1.8-1.2-1.8-2.2-1.6l-2.1,0.4v6.4l1.5-0.3v-2.2l0.6-0.1
	C61.8,162.4,63,161.9,63,160.1L63,160.1z M61.5,160.3c0,0.6-0.3,0.8-0.6,0.8l-0.7,0.1v-1.5l0.7-0.1
	C61.1,159.6,61.5,159.7,61.5,160.3z M72.4,160.3c0.5-0.4,1-0.9,1-2v-0.2c0-1.8-1.2-1.8-2.2-1.6l-2.1,0.4v6.4l1.5-0.3v-2.2l0.4-0.1
	l0.8,2.1l1.6-0.3L72.4,160.3L72.4,160.3z M71.8,158.5c0,0.6-0.3,0.8-0.6,0.8l-0.7,0.1V158l0.7-0.1C71.4,157.8,71.8,157.9,71.8,158.5
	z M63.8,165.9c-1.7,0.3-2.4,1.4-2.4,3.6v0.3c0,2.2,0.8,3,2.4,2.7c1.7-0.3,2.4-1.4,2.4-3.6v-0.3C66.3,166.4,65.5,165.6,63.8,165.9z
	 M64.7,169.2c0,1.1-0.2,1.8-0.9,2h-0.1c-0.7,0.1-0.9-0.5-0.9-1.7v-0.3c0-1.1,0.2-1.8,0.9-2h0.1c0.7-0.1,0.9,0.5,0.9,1.7V169.2z
	 M85.1,164.8c-0.8,0-1-0.1-1-0.5c0-0.3,0.2-0.6,0.7-0.7h0.1c0.6-0.1,0.8,0.2,0.8,0.9l1.5-0.3V164c0-1.5-0.7-2.1-2.3-1.8
	c-1.5,0.3-2.3,1.2-2.3,2.4v0.1c0,1.3,0.7,1.6,2,1.5c0.8,0,1,0.2,1,0.5s-0.2,0.6-0.7,0.7h-0.1c-0.5,0.1-0.8-0.1-0.8-0.9l-1.5,0.3v0.1
	c0,1.6,0.8,2.1,2.3,1.8s2.3-1.1,2.3-2.4v-0.1C87.2,165.1,86.5,164.7,85.1,164.8L85.1,164.8z M129.1,146.3l-4.3,0.8v1.3l1.4-0.2v5.1
	l1.5-0.3v-5.1l1.4-0.2V146.3L129.1,146.3z M119.8,152.2l-0.7-4.1l-1.9,0.3l-0.7,4.4l-0.5-4.2l-1.6,0.3l1,6.2l1.9-0.3l0.8-4.7
	l0.8,4.5l1.9-0.3l1-6.6l-1.6,0.3L119.8,152.2L119.8,152.2z M131.2,157.8l-0.9-3.5l-2.3,0.4v6.4l1.5-0.3v-3.7l0.9,3.5l1.6-0.3
	l0.9-3.8v3.7l1.5-0.3v-6.4l-2.3,0.4L131.2,157.8L131.2,157.8z M124.8,155.1c-1.7,0.3-2.4,1.4-2.4,3.6v0.3c0,2.2,0.8,3,2.4,2.7
	c1.7-0.3,2.4-1.4,2.4-3.6v-0.3C127.2,155.6,126.5,154.8,124.8,155.1z M125.7,158.5c0,1.1-0.2,1.8-0.9,2h-0.1
	c-0.7,0.1-0.9-0.5-0.9-1.7v-0.3c0-1.1,0.2-1.8,0.9-2h0.1c0.7-0.1,0.9,0.5,0.9,1.7V158.5z M124.1,147.2l-1.5,0.3v6.4l1.5-0.3
	C124.1,153.6,124.1,147.2,124.1,147.2z M132.9,148.1l-1.5,0.3v-2.5l-1.5,0.3v6.4l1.5-0.3v-2.6l1.5-0.3v2.6l1.5-0.3v-6.4l-1.5,0.3
	V148.1z M193.7,104.1L186,93.8c0.1-0.4,0.2-0.8,0.2-1.2v-8.2c0-0.7-0.1-1.3-0.4-1.9c-0.1-0.3-0.3-0.6-0.5-0.8c0-0.1-4.6-6.4-4.6-6.5
	l3.8-0.7c0.2,0,0.4-0.1,0.6-0.3c0.2-0.2,0.2-0.4,0.2-0.6v-5.3c0-0.2,0-0.4-0.1-0.5l-12.2-18c0,0,0-0.1-0.1-0.1
	c0.1,0.1,0.1,0.3,0.1,0.4v5.7c0,0.2-0.1,0.5-0.2,0.6c-0.2,0.2-0.4,0.3-0.6,0.3l-14.3,2.5c-0.2,0-0.4,0.2-0.6,0.4
	c-0.2,0.2-0.2,0.4-0.2,0.7v3.8c0,0.2,0.1,0.4,0.2,0.6c0.1,0.1,0.3,0.2,0.6,0.2l10.9-1.9c0.7-0.1,1.4-0.1,2,0.1
	c0.6,0.2,1.2,0.5,1.7,0.9c0.5,0.4,0.8,0.9,1.1,1.5c0.3,0.6,0.4,1.3,0.4,2v8.7c0,0.7-0.1,1.5-0.4,2.2c-0.3,0.7-0.7,1.4-1.1,1.9
	c-0.5,0.6-1,1.1-1.7,1.5c-0.6,0.4-1.3,0.7-2,0.8l-17.9,3.2c-0.6,0.1-0.9-0.1-0.9-0.7v-5.6c0-0.2,0.1-0.5,0.2-0.7
	c0.2-0.2,0.4-0.3,0.6-0.4l15.3-2.7c0.2,0,0.4-0.2,0.6-0.3c0.2-0.2,0.2-0.4,0.2-0.6V71c0-0.2-0.1-0.4-0.2-0.6
	c-0.2-0.1-0.4-0.2-0.6-0.1l-10.9,1.9c-0.7,0.1-1.4,0.1-2-0.1s-1.2-0.5-1.7-0.9s-0.9-0.9-1.1-1.5c-0.3-0.6-0.4-1.3-0.4-2v-1.6
	l-0.1-0.1l-8.4-10.4l-0.1-0.1c0.1,0.1,0.1,0.2,0.1,0.4V62c0,0.2-0.1,0.5-0.2,0.7c-0.2,0.2-0.4,0.3-0.6,0.4l-15,2.7
	c-0.2,0-0.4,0.2-0.6,0.3c-0.2,0.2-0.2,0.4-0.2,0.6v15c0,0.2,0.1,0.4,0.2,0.6c0.2,0.1,0.4,0.2,0.6,0.1l8.9-1.6c0.2,0,0.4-0.2,0.6-0.3
	c0.1-0.2,0.2-0.4,0.2-0.6v-8.1c0-0.2,0.1-0.5,0.2-0.7c0.2-0.2,0.4-0.3,0.6-0.4l6.2-1.1c0.2,0,0.4,0,0.6,0.1c0.2,0.1,0.2,0.3,0.2,0.6
	v11.4c0,0.7-0.1,1.5-0.4,2.2c-0.3,0.7-0.7,1.4-1.1,1.9c-0.5,0.6-1,1.1-1.7,1.4c-0.6,0.4-1.3,0.7-2,0.8l-16,2.6
	c-0.7,0.1-1.4,0.1-2-0.1s-1.2-0.5-1.7-0.9s-0.9-0.9-1.1-1.5c-0.3-0.6-0.4-1.3-0.4-2V71.3l-8.1-8.5v-0.1c0.3,0.3,0.5,0.7,0.7,1.1
	c0.3,0.6,0.4,1.3,0.4,2v26.1c0,0.2-0.1,0.5-0.2,0.7c-0.2,0.2-0.4,0.3-0.6,0.4l-6.2,1.1c-0.2,0-0.4,0-0.6-0.2
	c-0.2-0.1-0.2-0.3-0.2-0.6V70.5c0-0.2-0.1-0.4-0.2-0.6c-0.2-0.1-0.4-0.2-0.6-0.1l-8.9,1.6c-0.2,0-0.4,0.2-0.6,0.3
	c-0.2,0.2-0.2,0.4-0.2,0.6v22.8c0,0.6-0.3,0.9-0.9,1l-6.2,1.1c-0.6,0.1-0.9-0.1-0.9-0.7V65.9c0-0.6,0.3-0.9,0.9-1l15.3-2.7l-6.8-6.9
	v-7.9c0-0.3-0.1-0.4-0.2-0.5L74.1,27.4L74,27.3c0.1,0.1,0.1,0.3,0.1,0.5v22.8c0,0.2,0.1,0.4,0.2,0.6c0.2,0.1,0.4,0.2,0.6,0.1l11.5-2
	c0.2,0,0.4,0,0.6,0.2c0.1,0.1,0.2,0.3,0.2,0.6v6.1c0,0.2-0.1,0.5-0.2,0.7s-0.3,0.3-0.6,0.4L67,60.6c-0.6,0.1-0.9-0.1-0.9-0.7V48.6
	L66,48.5L48.6,31.9l-0.1-0.1c0.1,0.1,0.1,0.3,0.1,0.5v22.8c0,0.2,0.1,0.4,0.2,0.6c0.2,0.1,0.4,0.2,0.6,0.1l11.5-2
	c0.2,0,0.4,0,0.6,0.2c0.2,0.1,0.2,0.3,0.2,0.6v6.1c0,0.2-0.1,0.5-0.2,0.7c-0.1,0.2-0.3,0.3-0.6,0.4l-19.4,3.4
	c-0.6,0.1-0.9-0.1-0.9-0.7V43.6l-8.4-7.5h-0.1c0.4,0.4,0.7,0.8,1,1.4s0.4,1.3,0.4,2v26.1c0,0.2-0.1,0.5-0.2,0.7
	c-0.2,0.2-0.4,0.3-0.6,0.4l-6.2,1.1c-0.2,0-0.4,0-0.6-0.1c-0.2-0.1-0.2-0.3-0.2-0.6v-8.3c0-0.2-0.1-0.4-0.2-0.6
	c-0.1-0.1-0.3-0.2-0.6-0.2L16,59.5c-0.2,0-0.4,0.2-0.6,0.4c-0.2,0.2-0.2,0.4-0.2,0.7v8.3c0,0.6-0.3,0.9-0.9,1L8.1,71H7.6l0.1,0.1
	l8,5.9h0.1l12.8-2.3c0.2,0,0.4,0,0.6,0.1c0.2,0.1,0.2,0.3,0.2,0.6v6.1c0,0.2-0.1,0.5-0.2,0.7c-0.2,0.2-0.4,0.3-0.6,0.4l-6.4,1.1
	c-0.2,0-0.4,0.2-0.6,0.3c-0.2,0.2-0.2,0.4-0.2,0.6v22.8c0,0.2-0.1,0.5-0.2,0.7s-0.3,0.3-0.6,0.4l-6.2,1.1H14l9.1,5.8
	c0.1,0,0.1,0.1,0.2,0.1l5-0.9c0.7-0.1,1.4-0.1,2,0.1s1.2,0.5,1.7,0.9c0.5,0.4,0.8,0.9,1.1,1.5s0.4,1.3,0.4,2v21.6
	c0,0.7-0.1,1.5-0.4,2.2c-0.3,0.7-0.7,1.4-1.1,1.9c-0.5,0.6-1,1.1-1.7,1.5c-0.6,0.4-1.3,0.7-2,0.8l-15.9,2.8c-0.7,0.1-1.4,0.1-2-0.1
	c-0.3-0.1-0.5-0.2-0.8-0.3c0.1,0,22.5,11.6,22.6,11.7c0.3,0.2,0.6,0.3,1,0.4c0.6,0.2,1.2,0.2,1.9,0.1l14.9-2.6
	c0.7-0.1,1.3-0.4,1.9-0.7c0.6-0.4,1.1-0.8,1.6-1.4c0.4-0.5,0.8-1.1,1.1-1.8s0.4-1.3,0.4-2v-0.3l6.9,4c0.1,0.1,0.3,0.1,0.5,0.1l5.8-1
	c0.5-0.1,0.8-0.4,0.8-1v-7.1c0-0.2,0.1-0.4,0.2-0.6c0.2-0.2,0.3-0.3,0.6-0.3l9.4-1.7c0.7-0.1,1.3-0.4,1.9-0.7l0.2,0.1l9.5,6.3
	c0.3,0.2,0.6,0.3,1,0.4c0.6,0.2,1.2,0.2,1.9,0.1l16.8-3c0.2,0,0.4-0.2,0.6-0.3c0.2-0.2,0.2-0.4,0.2-0.6v-5.8l7,5.3
	c0.1,0.1,0.3,0.1,0.5,0.1l5.8-1c0.5-0.1,0.8-0.4,0.8-1v-9.6l9,7.5c0,0,0.1,0,0.1,0.1V97.8c0-1.1,0.9-2.2,2-2.4l44-7.8
	c1.1-0.2,2,0.6,2,1.7v45.4c0,1.1-0.9,2.2-2,2.4l-44,7.8c-0.3,0.1-0.6,0-0.9-0.1c0,0,0.1,0,0.1,0.1l0.1,0.1l14.2,11.6
	c0.3,0.3,0.8,0.4,1.3,0.3l41-7.2c1-0.2,1.9-1.2,1.9-2.2v-42.4C194,104.7,193.9,104.3,193.7,104.1L193.7,104.1z M34.9,105.1V74.5
	c0-0.6,0.3-0.9,0.9-1l6.2-1.1c0.6-0.1,0.9,0.1,0.9,0.7v10.4c0,0.6,0.3,0.8,0.9,0.7l8.9-1.6c0.2,0,0.4-0.2,0.6-0.4
	c0.1-0.2,0.2-0.4,0.2-0.7V71.2c0-0.2,0.1-0.5,0.2-0.7c0.2-0.2,0.4-0.3,0.6-0.4l6.2-1.1c0.2,0,0.4,0,0.6,0.1c0.2,0.1,0.2,0.3,0.2,0.6
	v30.7c0,0.2-0.1,0.5-0.2,0.7c-0.2,0.2-0.4,0.3-0.6,0.4l-6.2,1.1c-0.2,0-0.4,0-0.6-0.1c-0.2-0.1-0.2-0.3-0.2-0.6V91.2
	c0-0.2-0.1-0.4-0.2-0.6c-0.2-0.1-0.3-0.2-0.6-0.1l-8.9,1.6c-0.2,0-0.4,0.2-0.6,0.3C43,92.6,43,92.8,43,93v10.7c0,0.6-0.3,0.9-0.9,1
	l-6.2,1.1C35.1,106,34.9,105.7,34.9,105.1z M64.6,125.9c0,0.7-0.1,1.5-0.4,2.2s-0.7,1.4-1.1,1.9c-0.5,0.6-1,1-1.7,1.5
	c-0.6,0.4-1.3,0.7-2,0.8l-10,1.8c-0.2,0-0.4,0.2-0.6,0.3c-0.2,0.2-0.2,0.4-0.2,0.6v7.6c0,0.6-0.3,0.9-0.9,1l-6.2,1.1
	c-0.6,0.1-0.9-0.1-0.9-0.7v-30.6c0-0.6,0.3-0.9,0.9-1l17.9-3.2c0.7-0.1,1.4-0.1,2,0.1s1.2,0.5,1.7,0.9s0.8,0.9,1.1,1.5
	c0.3,0.6,0.4,1.3,0.4,2C64.6,113.7,64.6,125.9,64.6,125.9z M69.3,100c-0.6,0.1-0.9-0.1-0.9-0.7V68.6c0-0.6,0.3-0.9,0.9-1l6.2-1.1
	c0.6-0.1,0.9,0.1,0.9,0.7v30.7c0,0.6-0.3,0.9-0.9,1L69.3,100z M93.7,109.8c0,0.2-0.1,0.5-0.2,0.6c-0.2,0.2-0.4,0.3-0.6,0.3l-15,2.7
	c-0.1,0-0.2,0.1-0.2,0.3v5c0,0.1,0.1,0.2,0.2,0.1l12.8-2.3c0.2,0,0.4,0,0.6,0.1s0.2,0.3,0.2,0.6v4.8c0,0.6-0.3,0.9-0.9,1l-12.8,2.3
	c-0.1,0-0.2,0.1-0.2,0.3v5c0,0.2,0.1,0.2,0.2,0.2l15-2.7c0.2,0,0.4,0,0.6,0.1c0.2,0.1,0.2,0.3,0.2,0.6v5.8c0,0.2-0.1,0.5-0.2,0.7
	c-0.2,0.2-0.4,0.3-0.6,0.4L75,138.8c-0.7,0.1-1.4,0.1-2-0.1c-0.6-0.2-1.2-0.5-1.7-0.9s-0.9-0.9-1.1-1.5c-0.3-0.6-0.4-1.3-0.4-2
	v-21.5c0-0.7,0.1-1.5,0.4-2.2s0.6-1.3,1.1-1.9s1-1,1.7-1.5c0.6-0.4,1.3-0.7,2-0.8l17.9-3.2c0.2,0,0.4,0,0.6,0.1s0.2,0.3,0.2,0.6
	C93.7,103.9,93.7,109.8,93.7,109.8z M127.3,128.7c0,0.2-0.1,0.5-0.2,0.7c-0.2,0.2-0.4,0.3-0.6,0.4l-6.2,1.1c-0.2,0-0.4,0-0.6-0.2
	c-0.1-0.1-0.2-0.3-0.2-0.6v-22.8c0-0.2-0.1-0.4-0.2-0.6c-0.2-0.1-0.4-0.2-0.6-0.1l-8.9,1.6c-0.2,0-0.4,0.2-0.6,0.3
	c-0.2,0.2-0.2,0.4-0.2,0.6V132c0,0.6-0.3,0.9-0.9,1l-6.2,1.1c-0.6,0.1-0.9-0.1-0.9-0.7v-30.7c0-0.6,0.3-0.9,0.9-1l20.3-3.6
	c0.7-0.1,1.4-0.1,2,0.1s1.2,0.5,1.7,0.9l0.4,0.4c0.3,0.3,0.5,0.7,0.7,1.1c0.3,0.6,0.4,1.3,0.4,2v26.1L127.3,128.7z M15.1,124.9v16.7
	l10.6-1.9V123L15.1,124.9z M93.7,154.7v-0.2c0-1.8-1.2-1.8-2.2-1.6l-2.1,0.4v6.4l1.5-0.3v-2.2l0.4-0.1l0.8,2.1l1.6-0.3l-1-2.2
	C93.3,156.3,93.7,155.8,93.7,154.7z M92.1,154.9c0,0.6-0.3,0.8-0.6,0.8l-0.7,0.1v-1.5l0.7-0.1C91.8,154.2,92.1,154.3,92.1,154.9z
	 M48.3,126.7l8.8-1.5V117l-8.8,1.5V126.7z M99.8,151.5v6.4l1.5-0.3V155l1.5-0.3v2.6l1.5-0.3v-6.4l-1.5,0.3v2.5l-1.5,0.3v-2.5
	L99.8,151.5z M119.3,156.1c-1.7,0.3-2.4,1.4-2.4,3.6v0.3c0,2.2,0.7,3,2.4,2.7c1.5-0.3,2.3-1,2.3-2.7l-1.5,0.3c0,0.6-0.2,1-0.7,1.1
	h-0.1c-0.8,0.1-0.9-0.5-0.9-1.7v-0.3c0-1.1,0.1-1.8,0.9-2h0.1c0.6-0.1,0.7,0.4,0.7,1.1l1.5-0.3V158
	C121.6,156.3,120.8,155.8,119.3,156.1L119.3,156.1z M101.3,159.4l-2.1,0.4v6.4l1.5-0.3v-2.2l0.4-0.1l0.8,2.1l1.6-0.3l-1-2.2
	c0.5-0.4,1-0.9,1-2V161C103.6,159.2,102.4,159.2,101.3,159.4L101.3,159.4z M102,161.4c0,0.6-0.3,0.8-0.6,0.8l-0.7,0.1v-1.5l0.7-0.1
	C101.7,160.7,102,160.7,102,161.4z M96.9,154.5c-0.8,0-1-0.1-1-0.5c0-0.3,0.2-0.6,0.7-0.7h0.1c0.6-0.1,0.8,0.2,0.8,0.9l1.5-0.3v-0.2
	c0-1.5-0.7-2.1-2.3-1.8c-1.5,0.3-2.3,1.2-2.3,2.4v0.1c0,1.3,0.7,1.6,2,1.5c0.8,0,1,0.2,1,0.5s-0.2,0.6-0.7,0.7h-0.1
	c-0.5,0.1-0.8-0.1-0.8-0.9l-1.5,0.3v0.1c0,1.6,0.8,2.1,2.3,1.8s2.3-1.1,2.3-2.4C99,154.8,98.3,154.5,96.9,154.5L96.9,154.5z
	 M96.7,164.5c0,0.5-0.1,0.9-0.8,1c-0.7,0.1-0.8-0.2-0.8-0.7v-4.3l-1.5,0.3v4.4c0,1.3,0.5,2.1,2.3,1.7c1.8-0.3,2.3-1.2,2.3-2.6v-4.4
	l-1.5,0.3V164.5z M106.6,158.3c-1.7,0.3-2.4,1.4-2.4,3.6v0.3c0,2.2,0.7,3,2.4,2.7c1.5-0.3,2.3-1,2.3-2.7v-0.1l-1.5,0.3
	c0,0.6-0.2,1-0.7,1.1h-0.1c-0.8,0.1-0.9-0.5-0.9-1.7v-0.3c0-1.1,0.1-1.8,0.9-2h0.1c0.6-0.1,0.7,0.4,0.7,1.1l1.5-0.3V160
	C108.9,158.5,108.1,158.1,106.6,158.3L106.6,158.3z M109.8,164.3l3.9-0.7v-1.3l-2.4,0.4v-1.2l2-0.4v-1.3l-2,0.4V159l2.4-0.4v-1.3
	l-3.9,0.7V164.3L109.8,164.3z M114.6,163.5l1.5-0.3v-1.6l-1.5,0.3V163.5z M112.3,151.4v-0.2c0-1.8-1.2-1.8-2.2-1.6L108,150v6.4
	l1.5-0.3V154l0.6-0.1C111.1,153.7,112.3,153.2,112.3,151.4L112.3,151.4z M109.5,151.1l0.7-0.1c0.3-0.1,0.6,0,0.6,0.6v0.1
	c0,0.6-0.3,0.8-0.6,0.8l-0.7,0.1V151.1z M106.9,150.2l-1.5,0.3v6.4l1.5-0.3C106.9,156.6,106.9,150.2,106.9,150.2z"/>
</svg>
